<svg width="816" height="116" viewBox="0 0 816 116" fill="none" xmlns="http://www.w3.org/2000/svg">
<path fill-rule="evenodd" clip-rule="evenodd" d="M0.0983887 0H0V116H816V0H815.45C812.453 0 809.972 2.3418 809.696 5.32617C807.693 26.9746 795.705 107.57 727.941 115C724.646 115.361 721.218 115.55 717.652 115.55C675.953 115.55 559.28 115.385 436.993 115.211L429.33 115.199L360.292 115.101C335.487 115.065 311.05 115.031 287.57 115C206.404 114.891 136.683 114.809 102.726 114.809C14.5745 114.809 6.48779 29.0439 5.91626 5.76855C5.83838 2.5957 3.27124 0 0.0983887 0Z" fill="#0000FF"/>
</svg>
